<svg width="51" height="44" viewBox="0 0 51 44" fill="none" xmlns="http://www.w3.org/2000/svg">
<g clip-path="url(#clip0_32_9)">
<path d="M30.9403 0H4.6009C2.05989 0 0 2.04298 0 4.56313V39.4369C0 41.957 2.05989 44 4.6009 44H30.9403C33.4813 44 35.5412 41.957 35.5412 39.4369V4.56313C35.5412 2.04298 33.4813 0 30.9403 0Z" fill="#8CB7BC" style="fill:#8CB7BC;fill:color(display-p3 0.5490 0.7176 0.7373);fill-opacity:1;"/>
<path d="M28.1593 7.63947H7.38239C6.52049 7.63947 5.82178 8.33244 5.82178 9.18727C5.82178 10.0421 6.52049 10.7351 7.38239 10.7351H28.1593C29.0212 10.7351 29.7199 10.0421 29.7199 9.18727C29.7199 8.33244 29.0212 7.63947 28.1593 7.63947Z" fill="#243F58" style="fill:#243F58;fill:color(display-p3 0.1412 0.2471 0.3451);fill-opacity:1;"/>
<path d="M28.1593 16.0416H7.38239C6.52049 16.0416 5.82178 16.7346 5.82178 17.5894C5.82178 18.4442 6.52049 19.1372 7.38239 19.1372H28.1593C29.0212 19.1372 29.7199 18.4442 29.7199 17.5894C29.7199 16.7346 29.0212 16.0416 28.1593 16.0416Z" fill="#243F58" style="fill:#243F58;fill:color(display-p3 0.1412 0.2471 0.3451);fill-opacity:1;"/>
<path d="M28.1593 24.4453H7.38239C6.52049 24.4453 5.82178 25.1383 5.82178 25.9931C5.82178 26.848 6.52049 27.5409 7.38239 27.5409H28.1593C29.0212 27.5409 29.7199 26.848 29.7199 25.9931C29.7199 25.1383 29.0212 24.4453 28.1593 24.4453Z" fill="#243F58" style="fill:#243F58;fill:color(display-p3 0.1412 0.2471 0.3451);fill-opacity:1;"/>
<path d="M16.6716 32.8475H7.38239C6.52049 32.8475 5.82178 33.5404 5.82178 34.3953C5.82178 35.2501 6.52049 35.9431 7.38239 35.9431H16.6716C17.5335 35.9431 18.2322 35.2501 18.2322 34.3953C18.2322 33.5404 17.5335 32.8475 16.6716 32.8475Z" fill="#243F58" style="fill:#243F58;fill:color(display-p3 0.1412 0.2471 0.3451);fill-opacity:1;"/>
<path d="M29.5756 33.0674L49.4216 12.5719L45.6771 8.9657L25.8311 29.4596L29.5756 33.0674Z" fill="#243F58" style="fill:#243F58;fill:color(display-p3 0.1412 0.2471 0.3451);fill-opacity:1;"/>
<path d="M48.7174 13.2655L50.6358 11.3532C51.1231 10.8667 51.1231 10.08 50.6358 9.59349L48.7174 7.68122C48.2301 7.19472 47.4401 7.19472 46.9528 7.68122L45.0344 9.59349C44.5471 10.08 44.5471 10.8667 45.0344 11.3532L46.9528 13.2655C47.4401 13.752 48.2301 13.752 48.7174 13.2655Z" fill="#243F58" style="fill:#243F58;fill:color(display-p3 0.1412 0.2471 0.3451);fill-opacity:1;"/>
<path d="M22.3262 36.6833L25.81 29.1562L29.8735 33.2087L22.3262 36.6833Z" fill="#243F58" style="fill:#243F58;fill:color(display-p3 0.1412 0.2471 0.3451);fill-opacity:1;"/>
</g>
<defs>
<clipPath id="clip0_32_9">
<rect width="51" height="44" fill="white" style="fill:white;fill-opacity:1;"/>
</clipPath>
</defs>
</svg>
