<svg width="379" height="208" viewBox="0 0 379 208" fill="none" xmlns="http://www.w3.org/2000/svg">
<g clip-path="url(#clip0_32_34)">
<path d="M75.0762 1.96287C75.0643 2.07763 74.0567 1.91142 72.0652 2.12908C71.7373 2.1647 69.2716 2.45359 66.553 3.46668C61.7877 5.24354 58.5871 8.3857 57.5281 9.48981C55.0466 12.0819 53.8138 14.5038 52.012 18.0259C50.5697 20.8475 49.6135 23.309 49.005 25.0542C47.8077 24.8247 46.0257 24.3973 43.9907 23.5464C39.1226 21.5123 38.3916 19.3912 34.4639 17.0207C28.529 13.4353 22.2226 13.4709 19.67 13.4868C16.418 13.5066 13.7429 14.0289 11.9055 14.5117C25.2454 8.22741 31.3621 8.70625 34.4639 10.495C35.3688 11.0174 40.9797 14.5117 40.9797 14.5117C40.9797 14.5117 42.5524 15.3863 45.4922 17.0207C45.832 15.2478 46.5946 12.4301 48.4992 9.48981C49.2184 8.38174 52.7865 3.10655 59.5275 0.953738C67.4105 -1.5592 75.1038 1.63837 75.0683 1.95891L75.0762 1.96287Z" fill="#F3ECDD" style="fill:#F3ECDD;fill:color(display-p3 0.9529 0.9255 0.8667);fill-opacity:1;"/>
<path d="M190.171 26.9654C190.159 27.0802 189.151 26.914 187.16 27.1316C186.832 27.1673 184.366 27.4561 181.648 28.4692C176.882 30.2461 173.682 33.3883 172.623 34.4924C170.141 37.0845 168.909 39.5064 167.107 43.0284C165.664 45.8501 164.708 48.3116 164.1 50.0568C162.902 49.8272 161.12 49.3998 159.085 48.549C154.217 46.5149 153.486 44.3937 149.559 42.0233C143.624 38.4379 137.317 38.4735 134.765 38.4893C131.513 38.5091 128.838 39.0315 127 39.5143C140.34 33.23 146.457 33.7088 149.559 35.4976C150.463 36.0199 156.074 39.5143 156.074 39.5143C156.074 39.5143 157.647 40.3889 160.587 42.0233C160.927 40.2504 161.689 37.4327 163.594 34.4924C164.313 33.3843 167.881 28.1091 174.622 25.9563C182.505 23.4434 190.199 26.6409 190.163 26.9615L190.171 26.9654Z" fill="#F3ECDD" style="fill:#F3ECDD;fill:color(display-p3 0.9529 0.9255 0.8667);fill-opacity:1;"/>
<path d="M221.147 114.875C221.135 114.986 220.171 114.823 218.266 115.037C217.954 115.073 215.591 115.346 212.991 116.319C208.431 118.021 205.369 121.025 204.357 122.085C201.983 124.567 200.801 126.882 199.082 130.253C197.703 132.952 196.787 135.307 196.206 136.981C195.06 136.763 193.357 136.352 191.409 135.54C186.75 133.593 186.051 131.563 182.297 129.296C176.619 125.865 170.585 125.9 168.143 125.916C165.033 125.932 162.469 126.434 160.711 126.897C173.477 120.882 179.329 121.345 182.297 123.055C183.162 123.553 188.532 126.897 188.532 126.897C188.532 126.897 190.038 127.732 192.851 129.3C193.175 127.602 193.906 124.907 195.728 122.093C196.415 121.033 199.829 115.983 206.282 113.925C213.825 111.519 221.186 114.582 221.151 114.887L221.147 114.875Z" fill="#F3ECDD" style="fill:#F3ECDD;fill:color(display-p3 0.9529 0.9255 0.8667);fill-opacity:1;"/>
<path d="M106.66 156.356C106.648 156.471 105.64 156.305 103.649 156.522C103.321 156.558 100.855 156.847 98.1365 157.86C93.3712 159.637 90.1706 162.779 89.1116 163.883C86.6301 166.475 85.3973 168.897 83.5955 172.419C82.1532 175.241 81.197 177.702 80.5885 179.448C79.3912 179.218 77.6091 178.791 75.5742 177.94C70.7061 175.906 69.9751 173.784 66.0474 171.414C60.1124 167.829 53.8061 167.864 51.2535 167.88C48.0015 167.9 45.3264 168.422 43.489 168.905C56.8288 162.621 62.9456 163.1 66.0474 164.888C66.9523 165.411 72.5632 168.905 72.5632 168.905C72.5632 168.905 74.1359 169.78 77.0757 171.414C77.4155 169.641 78.1781 166.823 80.0827 163.883C80.8018 162.775 84.37 157.5 91.111 155.347C98.994 152.834 106.687 156.032 106.652 156.352L106.66 156.356Z" fill="#F3ECDD" style="fill:#F3ECDD;fill:color(display-p3 0.9529 0.9255 0.8667);fill-opacity:1;"/>
<path d="M56.6509 117.78C56.639 117.875 55.8053 117.736 54.1497 117.918C53.877 117.95 51.8263 118.187 49.57 119.03C45.6107 120.506 42.9515 123.118 42.0703 124.036C40.0077 126.193 38.9843 128.203 37.4867 131.128C36.2894 133.471 35.4952 135.517 34.9855 136.969C33.9937 136.779 32.5119 136.423 30.8207 135.718C26.7745 134.029 26.166 132.264 22.9061 130.297C17.9748 127.317 12.7353 127.349 10.6134 127.36C7.91063 127.376 5.68603 127.812 4.1608 128.211C15.2484 122.988 20.3298 123.387 22.9061 124.875C23.6569 125.311 28.3195 128.211 28.3195 128.211C28.3195 128.211 29.6235 128.939 32.0694 130.297C32.3499 128.821 32.9861 126.482 34.5706 124.04C35.1672 123.118 38.1308 118.733 43.7338 116.949C50.2852 114.859 56.6746 117.518 56.6469 117.784L56.6509 117.78Z" fill="#F3ECDD" style="fill:#F3ECDD;fill:color(display-p3 0.9529 0.9255 0.8667);fill-opacity:1;"/>
</g>
<defs>
<clipPath id="clip0_32_34">
<rect width="380" height="208" fill="white" style="fill:white;fill-opacity:1;" transform="matrix(-1 0 0 1 380 0)"/>
</clipPath>
</defs>
</svg>
