<svg width="47" height="47" viewBox="0 0 47 47" fill="none" xmlns="http://www.w3.org/2000/svg">
<path d="M2.93714 47H20.5629L23.5 26.4371H0L2.93714 47Z" fill="#21405A" style="fill:#21405A;fill:color(display-p3 0.1294 0.2510 0.3529);fill-opacity:1;"/>
<path d="M41.1242 8.81287H33.7813H29.3742L8.81274 14.6871H29.3742L32.3127 23.6406L29.3742 47H32.3127L38.187 29.3743L44.0627 47H46.9999L44.0627 23.7409L41.1242 8.81287Z" fill="#89B6BB" style="fill:#89B6BB;fill:color(display-p3 0.5373 0.7137 0.7333);fill-opacity:1;"/>
<path d="M33.7814 8.81142C36.2147 8.81142 38.1872 6.83892 38.1872 4.40571C38.1872 1.9725 36.2147 0 33.7814 0C31.3482 0 29.3757 1.9725 29.3757 4.40571C29.3757 6.83892 31.3482 8.81142 33.7814 8.81142Z" fill="#89B6BB" style="fill:#89B6BB;fill:color(display-p3 0.5373 0.7137 0.7333);fill-opacity:1;"/>
<path d="M8.81284 17.6243L5.87427 23.5H11.75V17.6243H8.81284Z" fill="#21405A" style="fill:#21405A;fill:color(display-p3 0.1294 0.2510 0.3529);fill-opacity:1;"/>
</svg>
