<?xml version="1.0" encoding="UTF-8"?>
<svg id="_2" data-name="2" xmlns="http://www.w3.org/2000/svg" viewBox="0 0 1322.74 2138.2">
  <defs>
    <style>
      .cls-1 {
        fill: #8cb6bb;
      }

      .cls-2 {
        fill: #21405a;
      }

      .cls-3 {
        fill: #243f58;
      }

      .cls-4 {
        fill: #89b6bb;
      }
    </style>
  </defs>
  <path class="cls-2" d="M826.46,1246.08c-6.41,21.56,1.55,42.93,17.8,47.76l-29.02,97.53,29.41,8.75,29.02-97.53c16.25,4.83,34.6-8.71,41.01-30.26l52.23-175.56-88.22-26.25-52.23,175.56Z"/>
  <path class="cls-2" d="M98.82,499.92c-13.72,17.82-13.95,40.63-.52,50.97l-62.07,80.64,24.31,18.71,62.07-80.64c13.43,10.34,35.42,4.28,49.14-13.54l111.72-145.15-72.93-56.14-111.72,145.15Z"/>
  <path class="cls-2" d="M563.24,923.07c-14.11-17.51-36.22-23.09-49.43-12.46l-63.83-79.25-23.89,19.24,63.83,79.25c-13.2,10.63-12.47,33.43,1.64,50.94l114.9,142.65,71.68-57.73-114.9-142.65Z"/>
  <path class="cls-2" d="M1055.79,483.18c-5.93-21.69-23.98-35.64-40.33-31.17l-26.84-98.16-29.59,8.09,26.84,98.16c-16.35,4.47-24.79,25.66-18.86,47.35l48.31,176.68,88.78-24.27-48.31-176.68Z"/>
  <path class="cls-2" d="M712,281.87c15.36-16.42,17.78-39.11,5.4-50.68l69.51-74.32-22.41-20.96-69.51,74.32c-12.38-11.58-34.85-7.65-50.21,8.77l-125.12,133.77,67.22,62.87,125.12-133.77Z"/>
  <path class="cls-2" d="M1318.02,1992.99l-37.38-120.03c20.89-26.83,27.75-62.4,17.38-95.79l-29.05-93.39c-10.39-33.39-36.26-58.79-68.69-69.01l-37.37-119.99c-17.08-54.91-75.68-85.73-130.62-68.63l-40.75,12.71c-20.35,6.33-32.41,26.63-29.3,47.07-2.63-4.14-5.63-8.04-9.05-11.63-14.13-14.77-33.68-23.13-54.11-23.13h-427.01c-20.43,0-39.99,8.36-54.09,23.13-14.13,14.77-21.61,34.67-20.68,55.07l23.49,525.83c2.77,46.55,41.5,83.01,88.19,83.01h353.19c46.64,0,85.4-36.51,88.23-83.23l23.47-525.6c.08-1.61-.24-3.17-.27-4.76l172.65,554.67,9.02,28.96c6.98,22.46,30.92,35.03,53.38,28.04l40.71-12.66c54.94-17.12,85.74-75.68,68.64-130.62ZM631.15,1939.02c0,21.8-17.76,39.53-39.53,39.53s-39.5-17.73-39.5-39.53v-353.44c0-21.77,17.71-39.53,39.5-39.53s39.53,17.76,39.53,39.53v353.44h0ZM819.04,1939.02c0,21.8-17.71,39.53-39.52,39.53s-39.55-17.73-39.55-39.53v-353.44c0-21.77,17.74-39.53,39.55-39.53s39.52,17.76,39.52,39.53v353.44ZM1230.2,2062.03l-19.86,6.22-178.78-574.36,19.9-6.2c21.01-6.52,43.4,5.26,49.92,26.22l42.98,138.1c3.91,12.53,14.94,21.37,27.92,22.58,16.45,1.45,30.25,12.58,35.16,28.35l29.06,93.4c4.91,15.74-.11,32.74-12.85,43.34-10.01,8.31-14.04,21.9-10.17,34.38l43,138.1c6.55,20.99-5.23,43.37-26.26,49.89Z"/>
  <g>
    <path class="cls-2" d="M418.61,486.38l7.84-43.23c1.21.06,2.44-.39,3.33-1.34l14.79-15.81c1.61-1.72,1.52-4.42-.2-6.03l-23.7-22.17c-1.72-1.61-4.42-1.52-6.03.2l-14.79,15.81c-.89.95-1.26,2.21-1.12,3.41l-42.61,10.71c-.79.2-1.51.62-2.07,1.22l-22.11,23.63-34.09,36.45-34.31,36.68c-6.53,6.98-6.16,17.97.82,24.49,3.8,3.56,8.8,5.07,13.61,4.58-.17,4.84,1.67,9.72,5.47,13.28s8.8,5.07,13.61,4.58c-.17,4.84,1.67,9.72,5.47,13.28,6.98,6.53,17.97,6.16,24.49-.82l34.31-36.68,34.09-36.45,22.11-23.63c.56-.6.93-1.35,1.08-2.15ZM417.96,406.94l17.48,16.35-8.96,9.58-.11-.11-17.25-16.13-.11-.11,8.96-9.58h0ZM404.98,424.44l13.85,12.96-8.39,46.22-18.34,19.6-51.02-47.73,18.34-19.6,45.56-11.45ZM358.02,539.67l-51.02-47.73,28.27-30.22,51.02,47.73-28.27,30.22ZM308.35,579.89c-3.54-3.32-3.73-8.9-.42-12.44,1.61-1.72,1.52-4.42-.2-6.03s-4.42-1.52-6.03.2c-3.32,3.54-8.9,3.73-12.44.42s-3.73-8.9-.42-12.44c1.61-1.72,1.52-4.42-.2-6.03s-4.42-1.52-6.03.2c-3.32,3.54-8.9,3.73-12.44.42s-3.73-8.9-.41-12.44l31.4-33.57,51.02,47.73-31.4,33.57c-3.31,3.55-8.9,3.73-12.44.42Z"/>
    <rect class="cls-4" x="311.71" y="480.01" width="69.87" height="41.38" transform="translate(435.51 -101.76) rotate(43.09)"/>
    <rect class="cls-4" x="410.25" y="413.34" width="23.93" height="13.12" transform="translate(400.7 -175.18) rotate(43.09)"/>
  </g>
  <g>
    <path class="cls-2" d="M421.64,987.14l-37.09-23.55c.51-1.1.56-2.4,0-3.59l-9.07-19.66c-.99-2.14-3.52-3.07-5.66-2.08l-29.47,13.6c-2.14.99-3.07,3.52-2.08,5.66l9.07,19.66c.55,1.19,1.57,2,2.74,2.32l-6.13,43.5c-.11.81,0,1.64.35,2.38l13.56,29.38,20.92,45.31,21.05,45.6c4.01,8.68,14.32,12.48,23,8.47,4.73-2.18,8.01-6.24,9.37-10.89,4.42,1.98,9.63,2.11,14.36-.07s8.01-6.24,9.37-10.89c4.42,1.98,9.63,2.11,14.36-.07,8.67-4,12.47-14.32,8.47-23l-21.05-45.6-20.92-45.31-13.56-29.38c-.35-.74-.9-1.37-1.59-1.81ZM347.8,957.82l21.73-10.03,5.5,11.91-.14.06-21.44,9.9-.14.07-5.5-11.91h0ZM359.13,976.43l17.22-7.95,39.65,25.18,11.25,24.37-63.43,29.28-11.25-24.37,6.56-46.51ZM448.17,1063.35l-63.43,29.28-17.34-37.57,63.43-29.28,17.34,37.57ZM466.71,1124.5c-4.41,2.03-9.65.1-11.68-4.3-.99-2.14-3.52-3.07-5.66-2.08s-3.07,3.52-2.08,5.66c2.03,4.41.1,9.65-4.3,11.68s-9.65.1-11.68-4.3c-.99-2.14-3.52-3.07-5.66-2.08s-3.07,3.52-2.08,5.66c2.03,4.41.1,9.65-4.3,11.68s-9.65.1-11.68-4.3l-19.27-41.73,63.43-29.28,19.27,41.73c2.04,4.41.11,9.65-4.3,11.68Z"/>
    <rect class="cls-4" x="372.85" y="1038.51" width="69.87" height="41.38" transform="translate(-406.41 268.45) rotate(-24.78)"/>
    <rect class="cls-4" x="349.45" y="952.2" width="23.93" height="13.12" transform="translate(-368.58 239.76) rotate(-24.78)"/>
  </g>
  <g>
    <path class="cls-2" d="M784.64,434.97l-40.14-17.86c.34-1.16.2-2.46-.52-3.55l-11.86-18.11c-1.29-1.97-3.93-2.52-5.9-1.23l-27.15,17.78c-1.97,1.29-2.52,3.93-1.23,5.9l11.86,18.11c.72,1.09,1.85,1.75,3.05,1.89l.31,43.93c0,.82.25,1.62.7,2.31l17.73,27.07,27.34,41.75,27.51,42.02c5.23,7.99,16,10.24,23.99,5.01,4.36-2.85,7.01-7.35,7.67-12.14,4.66,1.31,9.84.68,14.2-2.17s7.01-7.35,7.67-12.14c4.66,1.31,9.84.68,14.2-2.17,7.99-5.23,10.24-16,5-23.99l-27.51-42.02-27.34-41.75-17.73-27.07c-.45-.69-1.09-1.23-1.84-1.56ZM707.3,416.79l20.02-13.11,7.19,10.98-.13.08-19.76,12.94-.13.09-7.19-10.98h0ZM721.24,433.55l15.87-10.39,42.92,19.09,14.7,22.46-58.45,38.27-14.7-22.46-.34-46.97ZM822.07,506.46l-58.45,38.27-22.67-34.62,58.45-38.27,22.67,34.62ZM849.38,564.24c-4.06,2.66-9.53,1.52-12.19-2.54-1.29-1.97-3.93-2.52-5.9-1.23s-2.52,3.93-1.23,5.9c2.66,4.06,1.52,9.53-2.54,12.19s-9.53,1.52-12.19-2.54c-1.29-1.97-3.93-2.52-5.9-1.23s-2.52,3.93-1.23,5.9c2.66,4.06,1.52,9.53-2.54,12.19s-9.53,1.52-12.18-2.54l-25.18-38.45,58.45-38.27,25.18,38.45c2.66,4.06,1.52,9.53-2.54,12.18Z"/>
    <rect class="cls-4" x="746.58" y="487.6" width="69.87" height="41.38" transform="translate(-150.75 511.13) rotate(-33.21)"/>
    <rect class="cls-4" x="708.94" y="409.17" width="23.93" height="13.12" transform="translate(-109.95 462.81) rotate(-33.21)"/>
  </g>
  <g>
    <path class="cls-2" d="M793.55,922.66l-30.37-31.75c.76-.94,1.12-2.2.87-3.48l-4.1-21.26c-.45-2.31-2.68-3.83-4.99-3.38l-31.87,6.15c-2.31.45-3.83,2.68-3.38,4.99l4.1,21.26c.25,1.28,1.05,2.32,2.1,2.91l-16.38,40.77c-.3.76-.38,1.59-.23,2.4l6.13,31.77,9.45,49,9.51,49.32c1.81,9.38,10.92,15.54,20.3,13.73,5.11-.99,9.27-4.14,11.7-8.32,3.81,2.98,8.85,4.36,13.96,3.37,5.11-.99,9.27-4.14,11.7-8.32,3.81,2.98,8.85,4.36,13.96,3.37,9.38-1.81,15.54-10.92,13.73-20.3l-9.51-49.32-9.45-49-6.13-31.77c-.16-.8-.54-1.55-1.11-2.14ZM728.89,876.5l23.5-4.53,2.49,12.89-.15.03-23.19,4.47-.15.03-2.49-12.89h0ZM735.43,897.29l18.63-3.59,32.47,33.95,5.08,26.36-68.6,13.23-5.08-26.36,17.51-43.59ZM801.06,1003l-68.6,13.23-7.84-40.63,68.6-13.23,7.84,40.63ZM804.41,1066.82c-4.77.92-9.39-2.21-10.31-6.98-.45-2.31-2.68-3.83-4.99-3.38-2.31.45-3.83,2.68-3.38,4.99.92,4.77-2.21,9.39-6.98,10.31-4.77.92-9.39-2.21-10.31-6.98-.45-2.31-2.68-3.83-4.99-3.38s-3.83,2.68-3.38,4.99c.92,4.77-2.21,9.39-6.98,10.31s-9.39-2.21-10.31-6.98l-8.71-45.13,68.6-13.23,8.71,45.13c.92,4.77-2.21,9.39-6.97,10.31Z"/>
    <rect class="cls-4" x="727.91" y="968.62" width="69.87" height="41.38" transform="translate(-173.58 162.4) rotate(-10.92)"/>
    <rect class="cls-4" x="729.92" y="874.11" width="23.93" height="13.12" transform="translate(-153.38 156.47) rotate(-10.92)"/>
  </g>
  <g>
    <path class="cls-2" d="M1155.92,1188.31l7.84-43.23c1.21.06,2.44-.39,3.33-1.34l14.79-15.81c1.61-1.72,1.52-4.42-.2-6.03l-23.7-22.17c-1.72-1.61-4.42-1.52-6.03.2l-14.79,15.81c-.89.95-1.26,2.21-1.12,3.41l-42.61,10.71c-.79.2-1.51.62-2.07,1.22l-22.11,23.63-34.09,36.45-34.31,36.68c-6.53,6.98-6.16,17.97.82,24.49,3.8,3.56,8.8,5.07,13.61,4.58-.17,4.84,1.67,9.72,5.47,13.28s8.8,5.07,13.61,4.58c-.17,4.84,1.67,9.72,5.47,13.28,6.98,6.53,17.97,6.16,24.49-.82l34.31-36.68,34.09-36.45,22.11-23.63c.56-.6.93-1.35,1.08-2.15ZM1155.27,1108.86l17.48,16.35-8.96,9.58-.11-.11-17.25-16.13-.11-.11,8.96-9.58h0ZM1142.29,1126.37l13.85,12.96-8.39,46.22-18.34,19.6-51.02-47.73,18.34-19.6,45.56-11.45ZM1095.33,1241.6l-51.02-47.73,28.27-30.22,51.02,47.73-28.27,30.22ZM1045.66,1281.81c-3.54-3.32-3.73-8.9-.42-12.44,1.61-1.72,1.52-4.42-.2-6.03s-4.42-1.52-6.03.2c-3.32,3.54-8.9,3.73-12.44.42-3.54-3.32-3.73-8.9-.42-12.44,1.61-1.72,1.52-4.42-.2-6.03s-4.42-1.52-6.03.2c-3.32,3.54-8.9,3.73-12.44.42s-3.73-8.9-.41-12.44l31.4-33.57,51.02,47.73-31.4,33.57c-3.31,3.55-8.9,3.73-12.44.42Z"/>
    <rect class="cls-4" x="1049.01" y="1181.93" width="69.87" height="41.38" transform="translate(1113.84 -416.13) rotate(43.09)"/>
    <rect class="cls-4" x="1147.56" y="1115.27" width="23.93" height="13.12" transform="translate(1079.03 -489.54) rotate(43.09)"/>
  </g>
  <g>
    <path class="cls-2" d="M981.85,278.66c.66-1.02,1.13-2.16,1.48-3.33h0c.18-.62.3-1.19.45-1.9.49-2.41,1.1-6.22,1.61-9.51.26-1.65.48-3.16.64-4.25l10.06-9.63-61.32-64.02-10.06,9.63c-1.41.15-3.5.37-5.72.62-1.96.22-4,.47-5.75.7-.88.12-1.68.23-2.38.34-.71.12-1.28.21-1.9.36-1.18.29-2.35.72-3.4,1.33-1.05.61-1.86,1.33-2.5,1.94-.65.63-1.19,1.2-1.91,1.88-2.4,2.3-76.49,73.25-79.61,76.24-1.91,1.84-3.75,4.07-5.14,6.67-.69,1.31-1.27,2.71-1.6,4.3-.32,1.57-.38,3.41.24,5.3.32,1.01.32,1.51.28,2.07-.04.42-.14.89-.32,1.59-.13.52-.31,1.17-.45,2-.22,1.23-.28,3,.3,4.76.56,1.77,1.62,3.32,2.96,4.71l48.89,51.05c.8.83,1.64,1.56,2.56,2.15.81.52,1.69.94,2.6,1.2,1.59.48,3.12.45,4.23.3,1.69-.24,2.61-.54,3.29-.59s1.17-.06,2.31.35c1.86.7,3.69.72,5.28.47,2.4-.39,4.42-1.34,6.29-2.45,1.86-1.12,3.52-2.44,4.96-3.81,3.12-2.99,77.21-73.94,79.61-76.24.72-.69,1.31-1.21,1.97-1.83.64-.61,1.39-1.39,2.04-2.41ZM934.45,200.59l47.06,49.13-4.67,4.47-47.06-49.13,4.67-4.47ZM885.38,355.21l-.2.02c-2.19-.81-4.31-1.07-6.05-.97-1.34.07-2.43.3-3.19.46-.58.12-.97.2-1.16.22h0c-.11-.07-.3-.22-.63-.56l-48.89-51.05c-.31-.33-.46-.53-.53-.65.02-.12.05-.3.13-.61.18-.76.59-2.08.75-3.84.16-1.71-.02-3.8-.72-5.97,0-.04.02-.26.15-.63.06-.17.14-.37.24-.58l61.13,63.83c-.43.17-.81.29-1.02.32ZM970.71,275.46c-2.4,2.3-76.49,73.25-79.61,76.24-.26.25-.54.5-.84.75l-62.36-65.11c.26-.28.52-.57.77-.81,3.12-2.99,77.21-73.94,79.61-76.24.88-.84,1.51-1.5,1.91-1.88.41-.39.52-.45.56-.48.05-.02.14-.09.69-.23.02,0,.47-.1,1.03-.18,2.03-.32,5.86-.78,9.1-1.14,1.08-.12,2.05-.22,2.94-.32l51.13,53.39c-.3,2-.71,4.7-1.12,7.2-.23,1.41-.46,2.74-.66,3.8-.1.53-.19,1-.27,1.35-.07.35-.14.62-.15.63h0c-.17.54-.24.63-.26.67-.03.04-.1.15-.5.54-.4.38-1.08.99-1.96,1.83Z"/>
    <g>
      <rect class="cls-1" x="858.16" y="252.13" width="89.36" height="51.68" transform="translate(479.13 -566.34) rotate(46.24)"/>
      <path class="cls-3" d="M915.01,331.13l-64.76-67.62,40.4-38.69,64.76,67.62-40.4,38.69ZM856.29,263.64l58.86,61.46,34.24-32.79-58.86-61.46-34.24,32.79Z"/>
    </g>
  </g>
  <g>
    <path class="cls-2" d="M938.72,724c.5-1.1.8-2.31.97-3.51h0c.09-.64.12-1.22.16-1.94.13-2.46.17-6.31.19-9.65.01-1.67,0-3.19,0-4.3l8.52-11.01-70.1-54.27-8.53,11.01c-1.37.35-3.4.88-5.56,1.46-1.9.51-3.89,1.05-5.58,1.54-.85.25-1.63.48-2.31.69-.69.22-1.24.4-1.83.64-1.13.46-2.22,1.05-3.16,1.82-.95.76-1.64,1.59-2.18,2.29-.55.71-1,1.36-1.61,2.14-2.03,2.63-64.84,83.75-67.48,87.16-1.61,2.1-3.11,4.58-4.1,7.36-.49,1.39-.86,2.87-.94,4.49-.08,1.6.13,3.43,1.02,5.2.47.95.54,1.45.58,2,.02.42,0,.9-.08,1.62-.05.54-.13,1.2-.15,2.05-.03,1.24.16,3,.99,4.66.82,1.67,2.1,3.05,3.62,4.23l55.89,43.27c.91.71,1.85,1.3,2.85,1.75.88.39,1.81.68,2.75.81,1.64.24,3.16-.02,4.23-.33,1.64-.49,2.5-.92,3.17-1.07s1.14-.23,2.34,0c1.94.42,3.76.17,5.29-.32,2.31-.74,4.18-1.98,5.86-3.35,1.67-1.38,3.12-2.93,4.34-4.5,2.64-3.41,65.45-84.53,67.48-87.16.61-.79,1.12-1.39,1.67-2.1.54-.7,1.17-1.58,1.67-2.68ZM880.33,653.79l53.8,41.65-3.96,5.11-53.8-41.65,3.96-5.11ZM854.61,813.96l-.19.05c-2.28-.48-4.42-.42-6.13-.07-1.31.27-2.36.65-3.09.93-.55.2-.93.34-1.12.39h0c-.12-.06-.33-.17-.7-.46l-55.89-43.27c-.36-.28-.53-.46-.62-.56,0-.12,0-.3.04-.62.07-.77.28-2.15.17-3.91-.1-1.72-.58-3.75-1.59-5.8,0-.04-.02-.26.05-.65.03-.18.08-.39.15-.61l69.88,54.1c-.4.23-.76.41-.97.47ZM927.23,722.48c-2.03,2.63-64.84,83.75-67.48,87.16-.22.29-.47.58-.72.86l-71.29-55.19c.22-.31.43-.64.65-.92,2.64-3.41,65.45-84.53,67.48-87.16.75-.97,1.28-1.71,1.61-2.14.35-.45.45-.53.48-.56.04-.03.13-.11.65-.33.02-.01.45-.17.99-.33,1.96-.62,5.68-1.64,8.83-2.47,1.05-.28,2-.53,2.86-.75l58.45,45.25c0,2.03-.01,4.75-.05,7.28-.02,1.42-.05,2.78-.09,3.86-.02.54-.04,1.01-.06,1.38-.02.36-.05.63-.05.65h0c-.08.55-.14.66-.16.7-.02.04-.07.16-.42.61-.34.44-.93,1.14-1.67,2.1Z"/>
    <g>
      <rect class="cls-1" x="815.8" y="709.15" width="89.36" height="51.68" transform="translate(630.03 -372.95) rotate(37.75)"/>
      <path class="cls-3" d="M880.37,785.76l-74.03-57.31,34.25-44.23,74.03,57.31-34.25,44.23ZM812.32,727.68l67.29,52.09,29.03-37.49-67.29-52.09-29.03,37.49Z"/>
    </g>
  </g>
  <g>
    <path class="cls-2" d="M428.34,733.52c.74-.96,1.32-2.06,1.76-3.19h0c.23-.61.4-1.16.61-1.85.69-2.36,1.63-6.1,2.42-9.34.4-1.62.75-3.11,1.01-4.18l10.85-8.74-55.61-69.04-10.85,8.74c-1.42.03-3.52.07-5.75.13-1.97.05-4.02.12-5.79.2-.88.04-1.69.09-2.4.14-.72.05-1.3.1-1.93.2-1.2.19-2.4.51-3.5,1.03-1.1.52-1.97,1.16-2.65,1.72-.7.57-1.29,1.09-2.07,1.71-2.59,2.08-82.48,66.43-85.84,69.14-2.06,1.67-4.09,3.74-5.69,6.21-.8,1.24-1.5,2.59-1.96,4.15-.45,1.54-.67,3.36-.21,5.3.23,1.04.19,1.53.1,2.08-.07.41-.22.87-.46,1.56-.17.51-.41,1.14-.62,1.96-.32,1.2-.54,2.96-.11,4.77.41,1.81,1.33,3.45,2.55,4.95l44.34,55.05c.72.9,1.5,1.69,2.37,2.36.76.59,1.61,1.08,2.48,1.42,1.54.61,3.07.71,4.19.66,1.71-.1,2.65-.31,3.33-.3s1.17.04,2.27.55c1.79.86,3.62,1.03,5.22.92,2.42-.19,4.52-.96,6.48-1.9,1.94-.96,3.72-2.13,5.27-3.37,3.36-2.71,83.26-67.06,85.84-69.14.78-.62,1.41-1.09,2.11-1.66.69-.55,1.5-1.26,2.24-2.22ZM387.81,651.68l42.67,52.98-5.03,4.06-42.67-52.98,5.03-4.06ZM325.67,801.52h-.2c-2.11-1-4.2-1.43-5.94-1.48-1.34-.05-2.45.09-3.22.18-.58.07-.98.11-1.18.12h0c-.1-.08-.28-.24-.58-.61l-44.34-55.05c-.28-.35-.41-.57-.47-.69.03-.12.07-.29.18-.59.24-.74.77-2.02,1.07-3.76.3-1.69.31-3.78-.21-6.01,0-.04.04-.25.2-.62.07-.17.17-.36.28-.56l55.44,68.83c-.44.13-.83.22-1.05.23ZM417.52,729.37c-2.59,2.08-82.48,66.43-85.84,69.14-.28.23-.59.45-.9.67l-56.55-70.22c.28-.26.56-.52.84-.74,3.36-2.71,83.26-67.06,85.84-69.14.95-.77,1.64-1.37,2.07-1.71.44-.35.56-.41.6-.43.05-.02.15-.08.71-.17.03,0,.48-.06,1.04-.1,2.05-.15,5.91-.27,9.16-.35,1.09-.03,2.07-.05,2.95-.07l46.37,57.57c-.47,1.97-1.11,4.62-1.74,7.07-.35,1.38-.69,2.69-.99,3.73-.14.52-.28.98-.38,1.33-.1.35-.19.6-.2.62h0c-.21.52-.29.61-.32.65-.03.04-.11.14-.55.5-.43.35-1.16.89-2.11,1.66Z"/>
    <g>
      <rect class="cls-1" x="305" y="700.22" width="89.36" height="51.68" transform="translate(695.8 -1.7) rotate(51.15)"/>
      <path class="cls-3" d="M357.26,780.06l-58.73-72.91,43.57-35.09,58.73,72.91-43.57,35.09ZM304.53,707.8l53.38,66.27,36.93-29.74-53.38-66.27-36.93,29.74Z"/>
    </g>
  </g>
  <g>
    <path class="cls-2" d="M400.11,168.07c-1.02-.66-2.16-1.13-3.33-1.48h-.01c-.61-.18-1.18-.3-1.88-.45-2.41-.49-6.22-1.1-9.51-1.61-1.65-.26-3.16-.48-4.25-.64l-9.63-10.06-64.02,61.32,9.63,10.06c.15,1.41.37,3.5.62,5.72.22,1.96.47,4,.7,5.75.12.88.23,1.68.34,2.38.12.71.21,1.28.36,1.9.29,1.18.72,2.35,1.33,3.4.61,1.05,1.33,1.86,1.94,2.5.63.65,1.2,1.19,1.88,1.91,2.3,2.4,73.25,76.49,76.24,79.61,1.84,1.91,4.07,3.75,6.67,5.14,1.31.69,2.71,1.27,4.3,1.6,1.57.32,3.41.38,5.3-.24,1.01-.32,1.51-.32,2.07-.28.42.04.89.14,1.59.32.52.13,1.17.31,2,.45,1.23.22,3,.28,4.76-.3,1.77-.56,3.32-1.62,4.71-2.96l51.05-48.89c.83-.8,1.56-1.64,2.15-2.56.52-.81.94-1.69,1.2-2.6.48-1.59.45-3.12.3-4.23-.24-1.69-.54-2.61-.59-3.29s-.06-1.17.35-2.31c.7-1.86.72-3.69.47-5.28-.39-2.4-1.34-4.42-2.45-6.29-1.12-1.86-2.44-3.52-3.81-4.96-2.99-3.12-73.94-77.21-76.24-79.61-.69-.72-1.21-1.31-1.83-1.97-.61-.64-1.39-1.39-2.41-2.04ZM322.04,215.46l49.13-47.06,4.47,4.67-49.13,47.06-4.47-4.67ZM476.67,264.54l.02.2c-.81,2.19-1.07,4.31-.97,6.05.07,1.34.3,2.43.46,3.19.12.58.2.97.22,1.16h0c-.07.11-.22.3-.56.63l-51.05,48.89c-.33.31-.53.46-.65.53-.12-.02-.3-.05-.61-.13-.76-.18-2.08-.59-3.84-.75-1.71-.16-3.8.02-5.97.72-.04,0-.26-.02-.63-.15-.17-.06-.37-.14-.58-.24l63.83-61.13c.17.43.29.81.32,1.02ZM396.91,179.21c2.3,2.4,73.25,76.49,76.24,79.61.25.26.5.54.75.84l-65.11,62.36c-.28-.26-.57-.52-.81-.77-2.99-3.12-73.94-77.21-76.24-79.61-.84-.88-1.5-1.51-1.88-1.91-.39-.41-.45-.52-.48-.56-.02-.05-.09-.14-.23-.69,0-.02-.1-.47-.18-1.03-.32-2.03-.78-5.86-1.14-9.1-.12-1.08-.22-2.05-.32-2.94l53.39-51.13c2,.3,4.7.71,7.2,1.12,1.41.23,2.74.46,3.8.66.53.1,1,.19,1.35.27.35.07.62.14.63.15h0c.55.16.64.23.68.26.04.03.15.1.54.5.38.4.99,1.08,1.83,1.96Z"/>
    <g>
      <rect class="cls-1" x="354.74" y="221.24" width="89.36" height="51.68" transform="translate(-59.94 344.9) rotate(-43.76)"/>
      <path class="cls-3" d="M452.58,234.9l-67.62,64.76-38.69-40.4,67.62-64.76,38.69,40.4ZM385.09,293.63l61.46-58.86-32.79-34.24-61.46,58.86,32.79,34.24Z"/>
    </g>
  </g>
  <g>
    <path class="cls-1" d="M502.96,517.35c-5.36,3.59-5.52,10.19-7.6,24.89-2.96,20.95-3.82,15.94-5.47,30.84-2.18,19.64-1.53,35.97-.68,46.4,1.52,18.53,3.56,16.94,8.61,50.03,3.09,20.22,4.63,30.33,5.26,44.27.5,11.09.25,19.21,1.55,36.06,1.1,14.17,1.69,21.35,3.78,25.72,9.02,18.84,33,24.06,36.17,24.71,14.65,2.98,19.61-1.84,50.03-8.61,32.78-7.3,38.48-4.25,69.45-12.72,33.36-9.12,38.61-15.9,40.88-19.78,5.29-9.03,3.54-20.73-.18-43.77-2.87-17.8-5.75-25.56-10.34-44.77-6.64-27.74-5.57-32.12-10.2-52.3-8.4-36.62-15.34-32.97-21.98-64.33-2.62-12.36-5.59-20.19-11.53-35.84-4.77-12.57-7.72-18.19-12.86-19.38-2.19-.51-4.58-.16-20.1,7.96-5.2,2.72-9.55,5.1-12.75,6.88,3.69,2.56,10.15,7.78,14.95,16.57,2.25,4.12,6.41,11.74,5.69,21.68-.99,13.7-10.56,22.45-12.68,24.39-7.64,6.99-18.77,8.84-40.74,12.25-29.71,4.62-35.59,1.75-38.87-.54-8.02-5.59-10.46-14.63-11.46-18.33-5.97-22.13,9.96-41.64,12.24-44.34-2.02-2.23-7.05-7.13-15.09-9.04-3.25-.77-10.65-2.53-16.1,1.12Z"/>
    <path class="cls-2" d="M649.93,760.94c16.41-9.94,28.29-26.83,32.46-45.53,1.17-5.25,1.75-10.64,1.67-16.02-.05-3.21-5.05-3.22-5,0,.26,17.86-7.2,35.45-19.85,48.01-3.57,3.54-7.51,6.63-11.81,9.23-2.75,1.67-.24,5.99,2.52,4.32h0Z"/>
    <path class="cls-2" d="M566.32,754.45c-11.37-16.68-22.75-33.37-34.12-50.05-.76-1.11-2.2-1.61-3.42-.9-1.1.65-1.66,2.3-.9,3.42,11.37,16.68,22.75,33.37,34.12,50.05.76,1.11,2.2,1.61,3.42.9,1.1-.65,1.66-2.3.9-3.42h0Z"/>
    <path class="cls-2" d="M641.99,582.93c8.83,9.47,15.66,20.73,19.94,32.96.45,1.27,1.71,2.12,3.08,1.75,1.24-.34,2.19-1.8,1.75-3.08-4.57-13.06-11.79-25.04-21.22-35.16-2.2-2.36-5.73,1.18-3.54,3.54h0Z"/>
    <path class="cls-2" d="M540.97,635.72c3.22,0,3.22-5,0-5s-3.22,5,0,5h0Z"/>
    <path class="cls-2" d="M500.47,604.56c11.46,13.06,22.91,26.13,34.37,39.19,3.23,3.69,6.47,7.38,9.7,11.06.89,1.02,2.62.91,3.54,0,1.01-1.01.89-2.52,0-3.54-11.46-13.06-22.91-26.13-34.37-39.19-3.23-3.69-6.47-7.38-9.7-11.06-.89-1.02-2.62-.91-3.54,0-1.01,1.01-.89,2.52,0,3.54h0Z"/>
  </g>
  <g>
    <path class="cls-1" d="M226.14,1.03c-5.81-2.8-11.58.41-25.31,6.08-19.55,8.08-15.68,4.8-29.35,10.92-18.03,8.08-31.78,16.92-40.33,22.95-15.2,10.7-12.79,11.66-38.75,32.8-15.86,12.92-23.79,19.37-35.48,26.99-9.3,6.06-16.43,9.96-30.29,19.63-11.66,8.14-17.54,12.29-20.25,16.31-11.66,17.33-4,40.65-2.95,43.7,4.86,14.13,11.53,15.96,32.8,38.75,22.91,24.55,23.18,31,46.19,53.4,24.78,24.12,33.29,25.21,37.78,25.2,10.47-.02,19.66-7.47,37.63-22.36,13.88-11.51,19.11-17.92,33.34-31.62,20.54-19.79,24.86-21.1,39.9-35.32,27.3-25.82,20.63-29.94,44.29-51.57,9.33-8.53,14.56-15.06,25.04-28.12,8.41-10.49,11.76-15.88,10.18-20.91-.68-2.15-2.19-4.03-17.06-13.28-4.99-3.1-9.24-5.64-12.4-7.5-.34,4.48-1.56,12.69-6.7,21.29-2.41,4.03-6.86,11.48-15.8,15.91-12.31,6.09-24.7,2.29-27.45,1.45-9.89-3.04-17.14-11.7-31.22-28.9-19.05-23.26-19.56-29.79-19.25-33.77.75-9.74,7.31-16.44,9.99-19.17,16.04-16.37,40.94-12.53,44.43-11.94.89-2.87,2.57-9.7.13-17.59-.99-3.19-3.23-10.46-9.13-13.31Z"/>
    <path class="cls-2" d="M90.72,251.22c16.9,9.1,37.44,10.79,55.69,4.92,5.14-1.65,10.09-3.9,14.7-6.7,2.75-1.67.24-5.99-2.52-4.32-15.23,9.26-34.12,11.78-51.33,7.28-4.88-1.28-9.58-3.11-14.02-5.5-2.83-1.53-5.36,2.79-2.52,4.32h0Z"/>
    <path class="cls-2" d="M53.92,175.95c8.61-18.26,17.22-36.53,25.83-54.79.58-1.22.34-2.7-.9-3.42-1.09-.64-2.84-.33-3.42.9-8.61,18.26-17.22,36.53-25.83,54.79-.58,1.22-.34,2.7.9,3.42,1.09.64,2.84.33,3.42-.9h0Z"/>
    <path class="cls-2" d="M240.16,154.07c-3.68,12.41-9.91,24.02-18.27,33.91-.87,1.03-1.01,2.52,0,3.54.89.89,2.66,1.04,3.54,0,8.94-10.56,15.62-22.85,19.56-36.11.92-3.09-3.91-4.41-4.82-1.33h0Z"/>
    <path class="cls-2" d="M145.56,95.06c3.22,0,3.22-5,0-5s-3.22,5,0,5h0Z"/>
    <path class="cls-2" d="M149.73,43.08c-5.45,16.5-10.89,33-16.34,49.5-1.54,4.66-3.08,9.32-4.61,13.97-1.01,3.06,3.82,4.38,4.82,1.33,5.45-16.5,10.89-33,16.34-49.5,1.54-4.66,3.08-9.32,4.61-13.97,1.01-3.06-3.82-4.38-4.82-1.33h0Z"/>
  </g>
  <g>
    <path class="cls-1" d="M941.26,1029.38c6.03,2.29,11.5-1.4,24.69-8.22,18.79-9.72,15.21-6.12,28.31-13.4,17.27-9.6,30.21-19.58,38.22-26.32,14.22-11.97,11.75-12.72,35.8-36,14.7-14.23,22.04-21.34,33.04-29.93,8.75-6.83,15.52-11.33,28.5-22.15,10.92-9.1,16.42-13.74,18.78-17.98,10.13-18.26.5-40.84-.8-43.79-6.05-13.67-12.86-14.92-36-35.8-24.93-22.49-25.75-28.91-50.59-49.25-26.76-21.91-35.32-22.27-39.8-21.87-10.43.92-18.95,9.13-35.57,25.5-12.85,12.65-17.51,19.49-30.51,34.36-18.77,21.48-22.96,23.15-36.73,38.61-24.99,28.06-17.99,31.6-39.72,55.18-8.56,9.29-13.22,16.25-22.54,30.16-7.48,11.17-10.36,16.83-8.35,21.71.86,2.08,2.53,3.83,18.13,11.77,5.23,2.66,9.69,4.83,12.99,6.41-.05-4.49.46-12.77,4.85-21.78,2.05-4.22,5.85-12.03,14.38-17.2,11.74-7.12,24.42-4.39,27.22-3.79,10.12,2.18,18.08,10.19,33.58,26.12,20.97,21.54,22.04,28,22.07,32,.09,9.77-5.87,17-8.31,19.96-14.58,17.68-39.72,15.99-43.24,15.7-.64,2.94-1.73,9.88,1.37,17.54,1.26,3.1,4.11,10.15,10.24,12.48Z"/>
    <path class="cls-2" d="M1054.95,768.61c-17.59-7.61-38.06-7.72-55.77-.36-5.04,2.1-9.81,4.71-14.22,7.94-1.09.8-1.63,2.17-.9,3.42.63,1.07,2.32,1.7,3.42.9,14.37-10.52,33-14.83,50.55-11.8,4.93.85,9.8,2.23,14.39,4.22,1.24.54,2.68.37,3.42-.9.62-1.06.35-2.88-.9-3.42h0Z"/>
    <path class="cls-2" d="M1097.72,840.77c-7.01,18.93-14.03,37.87-21.04,56.8-.47,1.27.52,2.74,1.75,3.08,1.4.38,2.6-.48,3.08-1.75,7.01-18.93,14.03-37.87,21.04-56.8.47-1.27-.52-2.74-1.75-3.08-1.4-.38-2.6.48-3.08,1.75h0Z"/>
    <path class="cls-2" d="M914.14,878.31c2.66-12.93,7.96-25.13,15.6-35.9.78-1.1.2-2.78-.9-3.42-1.25-.73-2.64-.21-3.42.9-7.85,11.08-13.37,23.8-16.1,37.1-.27,1.32.38,2.7,1.75,3.08,1.24.34,2.8-.42,3.08-1.75h0Z"/>
    <path class="cls-2" d="M1013.71,933.79c3.22,0,3.22-5,0-5s-3.22,5,0,5h0Z"/>
    <path class="cls-2" d="M1013.74,981.15c4.01-16.91,8.03-33.81,12.04-50.72l3.4-14.32c.74-3.13-4.08-4.46-4.82-1.33-4.01,16.91-8.03,33.81-12.04,50.72l-3.4,14.32c-.74,3.13,4.08,4.46,4.82,1.33h0Z"/>
  </g>
  <g>
    <path class="cls-1" d="M433.63,1274.22c-.7,6.41,4.25,10.78,14.18,21.83,14.14,15.74,9.75,13.18,20.09,24.02,13.64,14.3,26.56,24.31,35.09,30.36,15.16,10.75,15.27,8.17,43.85,25.58,17.47,10.64,26.2,15.96,37.29,24.44,8.82,6.75,14.87,12.17,28.61,22,11.56,8.27,17.44,12.43,22.13,13.64,20.22,5.21,39.65-9.8,42.18-11.81,11.7-9.3,11.2-16.2,25.58-43.85,15.49-29.79,21.49-32.2,34.92-61.36,14.47-31.41,12.66-39.79,11.15-44.03-3.52-9.86-13.6-16.04-33.63-28.01-15.48-9.25-23.27-12.04-40.94-20.88-25.51-12.76-28.18-16.39-46.61-25.83-33.45-17.12-35.11-9.46-63.4-24.54-11.15-5.95-19.05-8.7-34.86-14.22-12.69-4.43-18.9-5.79-23.11-2.61-1.8,1.35-3.07,3.41-6.83,20.51-1.26,5.74-2.24,10.6-2.93,14.19,4.34-1.18,12.48-2.77,22.3-.79,4.6.93,13.11,2.64,20.27,9.59,9.85,9.57,10.4,22.52,10.52,25.39.44,10.34-5.31,20.06-16.82,39.08-15.57,25.72-21.55,28.38-25.41,29.42-9.43,2.55-17.93-1.4-21.41-3.02-20.78-9.66-25.48-34.41-26.08-37.89-3.01.12-10,.81-16.63,5.74-2.68,2-8.79,6.53-9.5,13.05Z"/>
    <path class="cls-2" d="M714.63,1318.57c2.94-18.98-2.15-38.87-13.79-54.16-3.28-4.31-6.99-8.23-11.18-11.66-1.05-.85-2.51-1.02-3.54,0-.88.88-1.05,2.68,0,3.54,13.79,11.25,22.64,28.18,24.14,45.92.42,5,.31,10.07-.46,15.03-.21,1.33.34,2.69,1.75,3.08,1.19.33,2.87-.4,3.08-1.75h0Z"/>
    <path class="cls-2" d="M655.52,1378.14c-20.09-2.02-40.18-4.04-60.27-6.06-1.35-.14-2.5,1.25-2.5,2.5,0,1.46,1.15,2.36,2.5,2.5,20.09,2.02,40.18,4.04,60.27,6.06,1.35.14,2.5-1.25,2.5-2.5,0-1.46-1.15-2.36-2.5-2.5h0Z"/>
    <path class="cls-2" d="M573.04,1209.93c13.18-.68,26.31,1.38,38.65,6.06,1.26.48,2.74-.53,3.08-1.75.39-1.4-.48-2.6-1.75-3.08-12.71-4.81-26.41-6.94-39.98-6.23-3.2.17-3.22,5.17,0,5h0Z"/>
    <path class="cls-2" d="M546.81,1322.13c3.22,0,3.22-5,0-5s-3.22,5,0,5h0Z"/>
    <path class="cls-2" d="M498.59,1332.22c17.37-.37,34.74-.74,52.12-1.12,4.9-.11,9.81-.21,14.71-.32,3.21-.07,3.22-5.07,0-5-17.37.37-34.74.74-52.12,1.12l-14.71.32c-3.21.07-3.22,5.07,0,5h0Z"/>
  </g>
</svg>