<svg width="48" height="60" viewBox="0 0 48 60" fill="none" xmlns="http://www.w3.org/2000/svg">
<path d="M17.7198 48.0961C17.5302 49.0483 17.1324 50.4464 16.2362 51.9257C15.5155 53.1148 14.7666 53.8695 13.9593 54.6754C13.0771 55.5556 11.7784 56.7028 10 57.8176C10.7371 57.799 11.4976 57.7688 12.2769 57.72C13.6996 57.6318 15.0545 57.4948 16.3345 57.3276C14.8181 58.2124 13.2994 59.0949 11.7831 59.9797C12.3307 60.0006 13.0771 60.0122 13.9593 59.9797C14.7573 59.9495 16.4538 59.8798 18.3141 59.4897C19.6667 59.204 21.7072 58.6234 24.0542 57.3299C24.0612 57.5668 24.0495 58.1752 23.6588 58.8023C23.289 59.3968 22.7859 59.6801 22.5706 59.7846C23.2867 59.6592 24.087 59.4734 24.9458 59.1947C26.2047 58.7883 27.2624 58.2913 28.1118 57.8199C28.9776 58.1474 29.9698 58.4585 31.0813 58.7047C33.2576 59.1855 35.1951 59.2621 36.7232 59.1947L34.1398 57.7525L31.9729 56.5426C33.178 57.0558 35.5157 57.8176 38.0102 57.0326C38.3659 56.9211 38.6958 56.7864 39 56.6401C38.0453 56.517 36.5008 56.2012 34.8441 55.2653C34.1632 54.8821 32.1554 53.7139 30.7865 51.3358C29.9628 49.9052 29.7662 48.7232 29.4012 46.5239C29.317 46.013 29.09 44.5638 29.0057 40.3371C28.9636 38.24 28.9917 37.246 29.0057 33.7578C29.0198 29.9143 28.994 29.0387 29.0057 28.1585C29.0455 25.3833 29.4925 21.3145 31.3809 15.8825C30.611 15.692 29.3989 15.5295 28.512 16.1774C27.5385 16.8881 27.459 18.2002 27.3256 19.3196C27.122 21.0265 26.6657 23.3861 25.5448 26.2937C25.3155 24.7493 24.9715 23.0307 24.4567 21.1868C23.7898 18.8063 22.9801 16.7371 22.1799 15C20.1019 15.3274 18.024 15.6549 15.946 15.9823C16.3625 16.9438 16.9218 18.3558 17.4296 20.1069C18.3679 23.335 18.8406 26.7187 18.7166 33.7578C18.6488 37.5549 18.4077 42.4202 17.7268 48.0961H17.7198Z" fill="#8CB7BC" style="fill:#8CB7BC;fill:color(display-p3 0.5490 0.7176 0.7373);fill-opacity:1;"/>
<path d="M15.5115 40.8874C16.2536 40.9742 16.2503 41.7712 17.2776 42.2923C18.1852 42.7521 19.1256 42.6073 19.7711 42.5085C20.6034 42.3808 21.2423 42.0845 21.642 41.8597C21.8649 42.1816 22.2318 42.6346 22.7856 43.0484C22.9674 43.1846 24.0061 43.9407 25.384 44.0207C27.7563 44.1587 29.3634 42.1935 29.5404 41.9687C29.9008 42.1697 30.5561 42.4728 31.4113 42.5085C33.3855 42.592 34.6749 41.1837 34.8403 40.9964C35.6759 40.053 35.9085 38.9989 35.9839 38.5118C36.2526 38.7485 36.7883 39.1487 37.5436 39.2679C38.8542 39.4757 40.0862 38.7213 40.7661 37.7557C41.9195 36.1158 41.2298 34.2103 41.1823 34.0826C41.6181 34.2699 42.488 34.5611 43.4694 34.2988C45.4534 33.7675 46.1333 31.4363 46.2758 30.9492C46.9917 28.4953 45.7843 26.3786 45.5484 25.9801C45.9367 25.8081 46.5052 25.488 47.0032 24.9005C48.4695 23.1669 47.9059 20.7573 47.8338 20.4712C47.3473 18.5299 45.7335 17.0126 43.6774 16.4745C43.9461 16.0369 44.3049 15.3404 44.5081 14.4225C44.5539 14.2131 45.0766 11.7251 43.9887 9.99327C42.7944 8.09282 39.7979 7.3146 36.8178 8.48109C36.9554 7.98384 37.1831 6.9059 36.8178 5.673C36.3148 3.9752 34.9059 2.71164 33.2839 2.32338C30.9805 1.77334 29.2291 3.22592 29.0227 3.40302C28.8736 3.02838 28.4411 2.09519 27.463 1.56729C26.1785 0.872506 24.4813 1.16541 23.2017 2.32338C22.9855 1.95726 22.5972 1.3987 21.955 0.918485C20.2216 -0.37402 18.2343 0.102793 18.005 0.162395C16.1438 0.642614 15.2133 2.12584 14.8873 2.64693C14.2205 3.71125 14.0206 4.75172 13.9518 5.34774C13.7896 5.21832 12.8066 4.46393 11.4583 4.69893C11.378 4.71256 10.0149 4.97481 9.27602 6.21111C8.89429 6.8497 8.83203 7.4934 8.75667 8.26312C8.69605 8.88808 8.72063 9.41258 8.75667 9.7753C8.36675 9.65269 7.60165 9.47048 6.67764 9.66801C5.24575 9.97283 4.43315 10.9724 4.18412 11.2892C3.31745 12.3876 3.18639 13.5574 3.14543 13.99C3.02092 15.2552 3.36988 16.2395 3.56156 16.6908C3.14379 16.8577 2.34593 17.2459 1.6906 18.0957C1.02872 18.9557 0.871442 19.8224 0.755121 20.4729C0.630609 21.1643 0.378308 22.5641 1.0664 24.0371C1.47762 24.9192 2.0625 25.4744 2.41801 25.7656C1.98386 26.0908 1.36458 26.6426 0.858335 27.494C-0.311424 29.4609 0.0162395 31.5282 0.129283 32.2451C0.237413 32.9331 0.64863 35.2882 2.72766 36.9979C4.9869 38.8558 7.5394 38.5748 8.02762 38.5101C8.17015 38.9341 8.69114 40.3084 10.1066 41.2109C10.3655 41.3761 12.0431 42.4472 13.6405 41.8597C14.6137 41.5021 14.8053 40.8039 15.5115 40.8874Z" fill="#243F58" style="fill:#243F58;fill:color(display-p3 0.1412 0.2471 0.3451);fill-opacity:1;"/>
</svg>
