<svg width="36" height="49" viewBox="0 0 36 49" fill="none" xmlns="http://www.w3.org/2000/svg">
<path d="M13.3179 41.1396C13.2003 41.741 12.9534 42.624 12.3971 43.5583C11.9497 44.3093 11.485 44.786 10.9839 45.2949C10.4363 45.8508 9.63021 46.5754 8.52637 47.2795C8.98388 47.2677 9.45592 47.2487 9.93958 47.2179C10.8227 47.1621 11.6636 47.0756 12.4581 46.97C11.5169 47.5288 10.5743 48.0862 9.63312 48.645C9.97299 48.6582 10.4363 48.6655 10.9839 48.645C11.4792 48.6259 12.5322 48.5819 13.6868 48.3355C14.5263 48.1551 15.7929 47.7884 17.2497 46.9714C17.254 47.1211 17.2467 47.5053 17.0042 47.9014C16.7747 48.2769 16.4624 48.4558 16.3288 48.5218C16.7733 48.4426 17.27 48.3253 17.803 48.1492C18.5844 47.8926 19.2409 47.5787 19.7682 47.2809C20.3056 47.4877 20.9214 47.6843 21.6113 47.8398C22.9621 48.1434 24.1647 48.1918 25.1131 48.1492L23.5096 47.2384L22.1647 46.4742C22.9127 46.7984 24.3636 47.2795 25.9119 46.7837C26.1327 46.7133 26.3375 46.6282 26.5263 46.5358C25.9337 46.4581 24.9751 46.2586 23.9468 45.6675C23.5241 45.4255 22.278 44.6877 21.4283 43.1857C20.917 42.2822 20.795 41.5356 20.5684 40.1466C20.5162 39.8239 20.3753 38.9087 20.323 36.2392C20.2968 34.9147 20.3143 34.2869 20.323 32.0838C20.3317 29.6564 20.3157 29.1034 20.323 28.5475C20.3477 26.7947 20.6251 24.225 21.7972 20.7942C21.3194 20.6739 20.567 20.5713 20.0165 20.9805C19.4123 21.4293 19.3629 22.258 19.2801 22.965C19.1538 24.0431 18.8706 25.5333 18.1748 27.3697C18.0325 26.3943 17.819 25.3089 17.4995 24.1443C17.0855 22.6409 16.583 21.334 16.0863 20.2368C14.7965 20.4437 13.5067 20.6505 12.217 20.8573C12.4755 21.4645 12.8226 22.3563 13.1378 23.4622C13.7203 25.501 14.0136 27.6381 13.9367 32.0838C13.8945 34.482 13.7449 37.5549 13.3223 41.1396H13.3179Z" fill="#89B6BB" style="fill:#89B6BB;fill:color(display-p3 0.5373 0.7137 0.7333);fill-opacity:1;"/>
<path d="M11.6336 31.1335C12.1902 31.1989 12.1877 31.7995 12.9581 32.1922C13.6389 32.5387 14.3441 32.4296 14.8283 32.3552C15.4525 32.2589 15.9317 32.0356 16.2315 31.8662C16.3986 32.1088 16.6738 32.4501 17.0891 32.762C17.2255 32.8646 18.0045 33.4344 19.0379 33.4947C20.8171 33.5987 22.0225 32.1178 22.1552 31.9484C22.4255 32.0998 22.917 32.3282 23.5584 32.3552C25.0391 32.4181 26.0061 31.3568 26.1302 31.2156C26.7568 30.5047 26.9313 29.7103 26.9878 29.3433C27.1893 29.5217 27.5911 29.8233 28.1576 29.9131C29.1406 30.0696 30.0646 29.5012 30.5745 28.7735C31.4395 27.5377 30.9222 26.1017 30.8866 26.0055C31.2134 26.1466 31.8659 26.3661 32.6019 26.1685C34.0899 25.7681 34.5998 24.0113 34.7067 23.6442C35.2437 21.795 34.3381 20.1999 34.1612 19.8996C34.4524 19.77 34.8788 19.5287 35.2523 19.086C36.352 17.7796 35.9293 15.9638 35.8753 15.7482C35.5103 14.2852 34.3 13.1418 32.758 12.7363C32.9595 12.4065 33.2286 11.8816 33.3809 11.1899C33.4153 11.0321 33.8073 9.15722 32.9914 7.85212C32.0957 6.41997 29.8483 5.83351 27.6133 6.71256C27.7165 6.33784 27.8873 5.52552 27.6133 4.59642C27.236 3.31699 26.1793 2.36479 24.9629 2.0722C23.2353 1.6577 21.9218 2.75234 21.7669 2.8858C21.6551 2.60348 21.3307 1.90024 20.5972 1.50242C19.6338 0.978839 18.3609 1.19956 17.4012 2.0722C17.239 1.79629 16.9478 1.37537 16.4662 1.01349C15.1662 0.0394735 13.6757 0.398794 13.5037 0.443709C12.1078 0.805595 11.4099 1.92334 11.1654 2.31602C10.6653 3.11808 10.5154 3.90216 10.4638 4.35131C10.3422 4.25378 9.60491 3.68529 8.59366 3.86238C8.53346 3.87265 7.51115 4.07027 6.95699 5.00194C6.67069 5.48317 6.624 5.96825 6.56748 6.5483C6.52202 7.01927 6.54045 7.41452 6.56748 7.68786C6.27504 7.59546 5.70122 7.45815 5.00822 7.60701C3.9343 7.83672 3.32485 8.59001 3.13808 8.8287C2.48808 9.65642 2.38978 10.538 2.35906 10.864C2.26568 11.8175 2.5274 12.5592 2.67116 12.8993C2.35783 13.025 1.75944 13.3176 1.26795 13.958C0.771538 14.6061 0.653579 15.2592 0.566339 15.7495C0.472955 16.2705 0.28373 17.3253 0.799799 18.4354C1.10821 19.1001 1.54687 19.5185 1.8135 19.7379C1.48789 19.983 1.02343 20.3988 0.643749 21.0404C-0.233567 22.5226 0.0121796 24.0806 0.0969623 24.6208C0.178059 25.1393 0.486471 26.914 2.04574 28.2025C3.74016 29.6025 5.65453 29.3908 6.02069 29.342C6.12759 29.6616 6.51833 30.6972 7.57996 31.3773C7.7741 31.5018 9.03232 32.309 10.2303 31.8662C10.9602 31.5968 11.104 31.0706 11.6336 31.1335Z" fill="#21405A" style="fill:#21405A;fill:color(display-p3 0.1294 0.2510 0.3529);fill-opacity:1;"/>
</svg>
